<mxfile host="app.diagrams.net" modified="2023-04-25T13:03:46.129Z" agent="Mozilla/5.0 (Windows NT 10.0; Win64; x64) AppleWebKit/537.36 (KHTML, like Gecko) Chrome/112.0.0.0 Safari/537.36" etag="bMwWGs6CmfAYhEDHo81z" version="21.2.1" type="device">
  <diagram name="PÃ¡gina-1" id="oKoZKeIrI0tT7KMq_hKS">
    <mxGraphModel dx="2294" dy="877" grid="1" gridSize="10" guides="1" tooltips="1" connect="1" arrows="0" fold="1" page="1" pageScale="1" pageWidth="827" pageHeight="1169" math="0" shadow="0">
      <root>
        <mxCell id="0" />
        <mxCell id="1" parent="0" />
        <mxCell id="Yk1SCRRMEy108CKN9fgq-1" value="&lt;u&gt;Cedula&lt;/u&gt;" style="ellipse;whiteSpace=wrap;html=1;" parent="1" vertex="1">
          <mxGeometry x="210" y="250" width="100" height="40" as="geometry" />
        </mxCell>
        <mxCell id="9bYaK1Sk4-K0mLXy_x04-3" style="edgeStyle=orthogonalEdgeStyle;rounded=0;orthogonalLoop=1;jettySize=auto;html=1;exitX=1;exitY=0.75;exitDx=0;exitDy=0;entryX=0;entryY=0.5;entryDx=0;entryDy=0;endArrow=none;endFill=0;" edge="1" parent="1" source="Yk1SCRRMEy108CKN9fgq-2" target="9bYaK1Sk4-K0mLXy_x04-2">
          <mxGeometry relative="1" as="geometry" />
        </mxCell>
        <mxCell id="Yk1SCRRMEy108CKN9fgq-2" value="Persona" style="rounded=0;whiteSpace=wrap;html=1;" parent="1" vertex="1">
          <mxGeometry x="360" y="210" width="120" height="60" as="geometry" />
        </mxCell>
        <mxCell id="Yk1SCRRMEy108CKN9fgq-3" value="Nombres" style="ellipse;whiteSpace=wrap;html=1;" parent="1" vertex="1">
          <mxGeometry x="180" y="200" width="110" height="40" as="geometry" />
        </mxCell>
        <mxCell id="Yk1SCRRMEy108CKN9fgq-4" value="Apellidos" style="ellipse;whiteSpace=wrap;html=1;" parent="1" vertex="1">
          <mxGeometry x="220" y="150" width="110" height="40" as="geometry" />
        </mxCell>
        <mxCell id="Yk1SCRRMEy108CKN9fgq-5" value="Correo" style="ellipse;whiteSpace=wrap;html=1;" parent="1" vertex="1">
          <mxGeometry x="270" y="100" width="110" height="40" as="geometry" />
        </mxCell>
        <mxCell id="Yk1SCRRMEy108CKN9fgq-6" value="Direccion" style="ellipse;whiteSpace=wrap;html=1;" parent="1" vertex="1">
          <mxGeometry x="365" y="80" width="110" height="40" as="geometry" />
        </mxCell>
        <mxCell id="Yk1SCRRMEy108CKN9fgq-7" value="Telefono" style="ellipse;whiteSpace=wrap;html=1;" parent="1" vertex="1">
          <mxGeometry x="483" y="80" width="110" height="40" as="geometry" />
        </mxCell>
        <mxCell id="Yk1SCRRMEy108CKN9fgq-9" value="Usuario" style="ellipse;whiteSpace=wrap;html=1;" parent="1" vertex="1">
          <mxGeometry x="518" y="130" width="110" height="40" as="geometry" />
        </mxCell>
        <mxCell id="Yk1SCRRMEy108CKN9fgq-10" value="Password" style="ellipse;whiteSpace=wrap;html=1;" parent="1" vertex="1">
          <mxGeometry x="518" y="180" width="110" height="40" as="geometry" />
        </mxCell>
        <mxCell id="Yk1SCRRMEy108CKN9fgq-12" value="" style="endArrow=none;html=1;rounded=0;entryX=1;entryY=0.5;entryDx=0;entryDy=0;exitX=0;exitY=0.5;exitDx=0;exitDy=0;" parent="1" source="Yk1SCRRMEy108CKN9fgq-2" target="Yk1SCRRMEy108CKN9fgq-1" edge="1">
          <mxGeometry width="50" height="50" relative="1" as="geometry">
            <mxPoint x="180" y="340" as="sourcePoint" />
            <mxPoint x="230" y="290" as="targetPoint" />
          </mxGeometry>
        </mxCell>
        <mxCell id="Yk1SCRRMEy108CKN9fgq-13" value="" style="endArrow=none;html=1;rounded=0;exitX=1;exitY=0.5;exitDx=0;exitDy=0;entryX=0;entryY=0.25;entryDx=0;entryDy=0;" parent="1" source="Yk1SCRRMEy108CKN9fgq-3" target="Yk1SCRRMEy108CKN9fgq-2" edge="1">
          <mxGeometry width="50" height="50" relative="1" as="geometry">
            <mxPoint x="300" y="240" as="sourcePoint" />
            <mxPoint x="350" y="190" as="targetPoint" />
          </mxGeometry>
        </mxCell>
        <mxCell id="Yk1SCRRMEy108CKN9fgq-14" value="" style="endArrow=none;html=1;rounded=0;entryX=1;entryY=1;entryDx=0;entryDy=0;" parent="1" target="Yk1SCRRMEy108CKN9fgq-4" edge="1">
          <mxGeometry width="50" height="50" relative="1" as="geometry">
            <mxPoint x="370" y="210" as="sourcePoint" />
            <mxPoint x="240" y="290" as="targetPoint" />
          </mxGeometry>
        </mxCell>
        <mxCell id="Yk1SCRRMEy108CKN9fgq-15" value="" style="endArrow=none;html=1;rounded=0;entryX=0.4;entryY=1;entryDx=0;entryDy=0;entryPerimeter=0;" parent="1" target="Yk1SCRRMEy108CKN9fgq-5" edge="1">
          <mxGeometry width="50" height="50" relative="1" as="geometry">
            <mxPoint x="400" y="210" as="sourcePoint" />
            <mxPoint x="430" y="140" as="targetPoint" />
          </mxGeometry>
        </mxCell>
        <mxCell id="Yk1SCRRMEy108CKN9fgq-16" value="" style="endArrow=none;html=1;rounded=0;" parent="1" edge="1">
          <mxGeometry width="50" height="50" relative="1" as="geometry">
            <mxPoint x="440" y="210" as="sourcePoint" />
            <mxPoint x="410" y="120" as="targetPoint" />
          </mxGeometry>
        </mxCell>
        <mxCell id="Yk1SCRRMEy108CKN9fgq-17" value="" style="endArrow=none;html=1;rounded=0;entryX=0.236;entryY=0.95;entryDx=0;entryDy=0;entryPerimeter=0;exitX=0.917;exitY=0;exitDx=0;exitDy=0;exitPerimeter=0;" parent="1" source="Yk1SCRRMEy108CKN9fgq-2" target="Yk1SCRRMEy108CKN9fgq-7" edge="1">
          <mxGeometry width="50" height="50" relative="1" as="geometry">
            <mxPoint x="470" y="220" as="sourcePoint" />
            <mxPoint x="520" y="170" as="targetPoint" />
          </mxGeometry>
        </mxCell>
        <mxCell id="Yk1SCRRMEy108CKN9fgq-18" value="" style="endArrow=none;html=1;rounded=0;exitX=1;exitY=0.5;exitDx=0;exitDy=0;entryX=0.055;entryY=0.25;entryDx=0;entryDy=0;entryPerimeter=0;" parent="1" source="Yk1SCRRMEy108CKN9fgq-2" target="Yk1SCRRMEy108CKN9fgq-10" edge="1">
          <mxGeometry width="50" height="50" relative="1" as="geometry">
            <mxPoint x="440" y="360" as="sourcePoint" />
            <mxPoint x="510" y="250" as="targetPoint" />
          </mxGeometry>
        </mxCell>
        <mxCell id="Yk1SCRRMEy108CKN9fgq-19" value="" style="endArrow=none;html=1;rounded=0;entryX=0;entryY=1;entryDx=0;entryDy=0;" parent="1" target="Yk1SCRRMEy108CKN9fgq-9" edge="1">
          <mxGeometry width="50" height="50" relative="1" as="geometry">
            <mxPoint x="480" y="230" as="sourcePoint" />
            <mxPoint x="510" y="230" as="targetPoint" />
          </mxGeometry>
        </mxCell>
        <mxCell id="Yk1SCRRMEy108CKN9fgq-20" value="" style="ellipse;whiteSpace=wrap;html=1;aspect=fixed;" parent="1" vertex="1">
          <mxGeometry x="410" y="290" width="20" height="20" as="geometry" />
        </mxCell>
        <mxCell id="Yk1SCRRMEy108CKN9fgq-21" value="" style="endArrow=none;html=1;rounded=0;exitX=0.5;exitY=1;exitDx=0;exitDy=0;entryX=0.5;entryY=0;entryDx=0;entryDy=0;" parent="1" source="Yk1SCRRMEy108CKN9fgq-2" target="Yk1SCRRMEy108CKN9fgq-20" edge="1">
          <mxGeometry width="50" height="50" relative="1" as="geometry">
            <mxPoint x="390" y="260" as="sourcePoint" />
            <mxPoint x="420" y="300" as="targetPoint" />
          </mxGeometry>
        </mxCell>
        <mxCell id="Yk1SCRRMEy108CKN9fgq-23" value="" style="triangle;whiteSpace=wrap;html=1;rotation=90;" parent="1" vertex="1">
          <mxGeometry x="390" y="300" width="60" height="80" as="geometry" />
        </mxCell>
        <mxCell id="Yk1SCRRMEy108CKN9fgq-24" value="Tipo" style="ellipse;whiteSpace=wrap;html=1;" parent="1" vertex="1">
          <mxGeometry x="490" y="300" width="70" height="30" as="geometry" />
        </mxCell>
        <mxCell id="Yk1SCRRMEy108CKN9fgq-25" value="" style="endArrow=none;html=1;rounded=0;entryX=0;entryY=1;entryDx=0;entryDy=0;exitX=0.5;exitY=0;exitDx=0;exitDy=0;" parent="1" source="Yk1SCRRMEy108CKN9fgq-23" target="Yk1SCRRMEy108CKN9fgq-24" edge="1">
          <mxGeometry width="50" height="50" relative="1" as="geometry">
            <mxPoint x="440" y="370" as="sourcePoint" />
            <mxPoint x="490" y="320" as="targetPoint" />
          </mxGeometry>
        </mxCell>
        <mxCell id="Yk1SCRRMEy108CKN9fgq-26" value="" style="shape=requiredInterface;html=1;verticalLabelPosition=bottom;sketch=0;rotation=90;" parent="1" vertex="1">
          <mxGeometry x="407.5" y="350" width="25" height="70" as="geometry" />
        </mxCell>
        <mxCell id="Yk1SCRRMEy108CKN9fgq-27" value="Superadministrador" style="html=1;whiteSpace=wrap;" parent="1" vertex="1">
          <mxGeometry x="160" y="415" width="110" height="50" as="geometry" />
        </mxCell>
        <mxCell id="Yk1SCRRMEy108CKN9fgq-62" style="edgeStyle=orthogonalEdgeStyle;rounded=0;orthogonalLoop=1;jettySize=auto;html=1;exitX=0.5;exitY=1;exitDx=0;exitDy=0;entryX=1;entryY=0.5;entryDx=0;entryDy=0;endArrow=none;endFill=0;" parent="1" source="Yk1SCRRMEy108CKN9fgq-28" target="Yk1SCRRMEy108CKN9fgq-61" edge="1">
          <mxGeometry relative="1" as="geometry" />
        </mxCell>
        <mxCell id="Yk1SCRRMEy108CKN9fgq-28" value="Administrador" style="html=1;whiteSpace=wrap;" parent="1" vertex="1">
          <mxGeometry x="560" y="415" width="110" height="50" as="geometry" />
        </mxCell>
        <mxCell id="Yk1SCRRMEy108CKN9fgq-51" style="edgeStyle=orthogonalEdgeStyle;rounded=0;orthogonalLoop=1;jettySize=auto;html=1;exitX=1;exitY=0.5;exitDx=0;exitDy=0;entryX=0.5;entryY=1;entryDx=0;entryDy=0;endArrow=none;endFill=0;" parent="1" source="Yk1SCRRMEy108CKN9fgq-29" target="Yk1SCRRMEy108CKN9fgq-52" edge="1">
          <mxGeometry relative="1" as="geometry" />
        </mxCell>
        <mxCell id="Yk1SCRRMEy108CKN9fgq-29" value="Evidencias" style="html=1;whiteSpace=wrap;" parent="1" vertex="1">
          <mxGeometry x="390" y="910" width="110" height="50" as="geometry" />
        </mxCell>
        <mxCell id="Yk1SCRRMEy108CKN9fgq-30" value="Criterios" style="html=1;whiteSpace=wrap;" parent="1" vertex="1">
          <mxGeometry x="-15" y="560" width="110" height="50" as="geometry" />
        </mxCell>
        <mxCell id="Yk1SCRRMEy108CKN9fgq-31" value="Subcriterios" style="html=1;whiteSpace=wrap;" parent="1" vertex="1">
          <mxGeometry x="-15" y="732" width="110" height="50" as="geometry" />
        </mxCell>
        <mxCell id="Yk1SCRRMEy108CKN9fgq-32" value="Indicadores" style="html=1;whiteSpace=wrap;" parent="1" vertex="1">
          <mxGeometry x="-15" y="910" width="110" height="50" as="geometry" />
        </mxCell>
        <mxCell id="Yk1SCRRMEy108CKN9fgq-56" style="edgeStyle=orthogonalEdgeStyle;rounded=0;orthogonalLoop=1;jettySize=auto;html=1;exitX=0.5;exitY=0;exitDx=0;exitDy=0;entryX=0.5;entryY=1;entryDx=0;entryDy=0;endArrow=none;endFill=0;" parent="1" source="Yk1SCRRMEy108CKN9fgq-33" target="Yk1SCRRMEy108CKN9fgq-54" edge="1">
          <mxGeometry relative="1" as="geometry" />
        </mxCell>
        <mxCell id="Yk1SCRRMEy108CKN9fgq-33" value="Actividades" style="html=1;whiteSpace=wrap;" parent="1" vertex="1">
          <mxGeometry x="587" y="682" width="110" height="50" as="geometry" />
        </mxCell>
        <mxCell id="Yk1SCRRMEy108CKN9fgq-34" value="Responsable" style="html=1;whiteSpace=wrap;" parent="1" vertex="1">
          <mxGeometry x="365" y="570" width="110" height="50" as="geometry" />
        </mxCell>
        <mxCell id="Yk1SCRRMEy108CKN9fgq-35" value="Plan Aseguramiento" style="html=1;whiteSpace=wrap;" parent="1" vertex="1">
          <mxGeometry x="-310" y="550" width="110" height="50" as="geometry" />
        </mxCell>
        <mxCell id="Yk1SCRRMEy108CKN9fgq-36" value="" style="endArrow=none;html=1;rounded=0;entryX=0.793;entryY=0.61;entryDx=0;entryDy=0;exitX=1;exitY=0.5;exitDx=0;exitDy=0;entryPerimeter=0;" parent="1" source="Yk1SCRRMEy108CKN9fgq-27" target="Yk1SCRRMEy108CKN9fgq-23" edge="1">
          <mxGeometry width="50" height="50" relative="1" as="geometry">
            <mxPoint x="410" y="440" as="sourcePoint" />
            <mxPoint x="420" y="380" as="targetPoint" />
            <Array as="points">
              <mxPoint x="411" y="440" />
            </Array>
          </mxGeometry>
        </mxCell>
        <mxCell id="Yk1SCRRMEy108CKN9fgq-37" value="" style="endArrow=none;html=1;rounded=0;exitX=0;exitY=0.5;exitDx=0;exitDy=0;entryX=0.76;entryY=0.375;entryDx=0;entryDy=0;entryPerimeter=0;" parent="1" source="Yk1SCRRMEy108CKN9fgq-28" target="Yk1SCRRMEy108CKN9fgq-23" edge="1">
          <mxGeometry width="50" height="50" relative="1" as="geometry">
            <mxPoint x="340" y="450" as="sourcePoint" />
            <mxPoint x="430" y="360" as="targetPoint" />
            <Array as="points">
              <mxPoint x="429" y="440" />
            </Array>
          </mxGeometry>
        </mxCell>
        <mxCell id="Yk1SCRRMEy108CKN9fgq-38" value="" style="endArrow=none;html=1;rounded=0;entryX=1;entryY=0.5;entryDx=0;entryDy=0;exitX=0.5;exitY=0;exitDx=0;exitDy=0;" parent="1" source="Yk1SCRRMEy108CKN9fgq-34" target="Yk1SCRRMEy108CKN9fgq-23" edge="1">
          <mxGeometry width="50" height="50" relative="1" as="geometry">
            <mxPoint x="400" y="570" as="sourcePoint" />
            <mxPoint x="450" y="520" as="targetPoint" />
            <Array as="points" />
          </mxGeometry>
        </mxCell>
        <mxCell id="Yk1SCRRMEy108CKN9fgq-39" value="Administra" style="rhombus;whiteSpace=wrap;html=1;" parent="1" vertex="1">
          <mxGeometry x="5" y="465" width="70" height="60" as="geometry" />
        </mxCell>
        <mxCell id="Yk1SCRRMEy108CKN9fgq-40" value="" style="endArrow=none;html=1;rounded=0;entryX=0;entryY=0.5;entryDx=0;entryDy=0;exitX=0.5;exitY=0;exitDx=0;exitDy=0;" parent="1" source="Yk1SCRRMEy108CKN9fgq-39" target="Yk1SCRRMEy108CKN9fgq-27" edge="1">
          <mxGeometry width="50" height="50" relative="1" as="geometry">
            <mxPoint x="40" y="460" as="sourcePoint" />
            <mxPoint x="90" y="420" as="targetPoint" />
            <Array as="points">
              <mxPoint x="40" y="440" />
            </Array>
          </mxGeometry>
        </mxCell>
        <mxCell id="Yk1SCRRMEy108CKN9fgq-41" value="" style="endArrow=none;html=1;rounded=0;exitX=0.5;exitY=0;exitDx=0;exitDy=0;entryX=0.5;entryY=1;entryDx=0;entryDy=0;" parent="1" source="Yk1SCRRMEy108CKN9fgq-30" target="Yk1SCRRMEy108CKN9fgq-39" edge="1">
          <mxGeometry width="50" height="50" relative="1" as="geometry">
            <mxPoint x="-10" y="580" as="sourcePoint" />
            <mxPoint x="40" y="530" as="targetPoint" />
          </mxGeometry>
        </mxCell>
        <mxCell id="Yk1SCRRMEy108CKN9fgq-149" style="rounded=0;orthogonalLoop=1;jettySize=auto;html=1;exitX=1;exitY=0;exitDx=0;exitDy=0;entryX=1.199;entryY=1.285;entryDx=0;entryDy=0;entryPerimeter=0;endArrow=none;endFill=0;" parent="1" source="Yk1SCRRMEy108CKN9fgq-42" target="Yk1SCRRMEy108CKN9fgq-97" edge="1">
          <mxGeometry relative="1" as="geometry" />
        </mxCell>
        <mxCell id="Yk1SCRRMEy108CKN9fgq-42" value="Tiene" style="rhombus;whiteSpace=wrap;html=1;" parent="1" vertex="1">
          <mxGeometry x="10" y="640" width="60" height="50" as="geometry" />
        </mxCell>
        <mxCell id="Yk1SCRRMEy108CKN9fgq-43" value="Tiene" style="rhombus;whiteSpace=wrap;html=1;" parent="1" vertex="1">
          <mxGeometry x="10" y="820" width="60" height="50" as="geometry" />
        </mxCell>
        <mxCell id="Yk1SCRRMEy108CKN9fgq-44" value="" style="endArrow=none;html=1;rounded=0;entryX=0.5;entryY=1;entryDx=0;entryDy=0;exitX=0.5;exitY=0;exitDx=0;exitDy=0;" parent="1" source="Yk1SCRRMEy108CKN9fgq-42" target="Yk1SCRRMEy108CKN9fgq-30" edge="1">
          <mxGeometry width="50" height="50" relative="1" as="geometry">
            <mxPoint x="160" y="690" as="sourcePoint" />
            <mxPoint x="210" y="640" as="targetPoint" />
          </mxGeometry>
        </mxCell>
        <mxCell id="Yk1SCRRMEy108CKN9fgq-45" value="" style="endArrow=none;html=1;rounded=0;entryX=0.5;entryY=1;entryDx=0;entryDy=0;exitX=0.5;exitY=0;exitDx=0;exitDy=0;" parent="1" source="Yk1SCRRMEy108CKN9fgq-31" target="Yk1SCRRMEy108CKN9fgq-42" edge="1">
          <mxGeometry width="50" height="50" relative="1" as="geometry">
            <mxPoint x="-40" y="750" as="sourcePoint" />
            <mxPoint x="10" y="700" as="targetPoint" />
          </mxGeometry>
        </mxCell>
        <mxCell id="Yk1SCRRMEy108CKN9fgq-46" value="" style="endArrow=none;html=1;rounded=0;entryX=0.5;entryY=1;entryDx=0;entryDy=0;exitX=0.5;exitY=0;exitDx=0;exitDy=0;" parent="1" source="Yk1SCRRMEy108CKN9fgq-43" target="Yk1SCRRMEy108CKN9fgq-31" edge="1">
          <mxGeometry width="50" height="50" relative="1" as="geometry">
            <mxPoint x="-20" y="840" as="sourcePoint" />
            <mxPoint x="30" y="790" as="targetPoint" />
          </mxGeometry>
        </mxCell>
        <mxCell id="Yk1SCRRMEy108CKN9fgq-47" value="" style="endArrow=none;html=1;rounded=0;exitX=0.5;exitY=0;exitDx=0;exitDy=0;" parent="1" source="Yk1SCRRMEy108CKN9fgq-32" edge="1">
          <mxGeometry width="50" height="50" relative="1" as="geometry">
            <mxPoint x="-10" y="920" as="sourcePoint" />
            <mxPoint x="40" y="870" as="targetPoint" />
          </mxGeometry>
        </mxCell>
        <mxCell id="Yk1SCRRMEy108CKN9fgq-48" value="Tiene" style="rhombus;whiteSpace=wrap;html=1;" parent="1" vertex="1">
          <mxGeometry x="210" y="910" width="60" height="50" as="geometry" />
        </mxCell>
        <mxCell id="Yk1SCRRMEy108CKN9fgq-49" value="" style="endArrow=none;html=1;rounded=0;entryX=0;entryY=0.5;entryDx=0;entryDy=0;exitX=1;exitY=0.5;exitDx=0;exitDy=0;" parent="1" source="Yk1SCRRMEy108CKN9fgq-32" target="Yk1SCRRMEy108CKN9fgq-48" edge="1">
          <mxGeometry width="50" height="50" relative="1" as="geometry">
            <mxPoint x="80" y="990" as="sourcePoint" />
            <mxPoint x="130" y="940" as="targetPoint" />
          </mxGeometry>
        </mxCell>
        <mxCell id="Yk1SCRRMEy108CKN9fgq-50" value="" style="endArrow=none;html=1;rounded=0;exitX=1;exitY=0.5;exitDx=0;exitDy=0;entryX=0;entryY=0.5;entryDx=0;entryDy=0;" parent="1" source="Yk1SCRRMEy108CKN9fgq-48" target="Yk1SCRRMEy108CKN9fgq-29" edge="1">
          <mxGeometry width="50" height="50" relative="1" as="geometry">
            <mxPoint x="200" y="980" as="sourcePoint" />
            <mxPoint x="250" y="930" as="targetPoint" />
          </mxGeometry>
        </mxCell>
        <mxCell id="Yk1SCRRMEy108CKN9fgq-53" style="edgeStyle=orthogonalEdgeStyle;rounded=0;orthogonalLoop=1;jettySize=auto;html=1;exitX=0.5;exitY=0;exitDx=0;exitDy=0;entryX=0.5;entryY=1;entryDx=0;entryDy=0;endArrow=none;endFill=0;" parent="1" source="Yk1SCRRMEy108CKN9fgq-52" target="Yk1SCRRMEy108CKN9fgq-33" edge="1">
          <mxGeometry relative="1" as="geometry" />
        </mxCell>
        <mxCell id="Yk1SCRRMEy108CKN9fgq-52" value="Pertenece" style="rhombus;whiteSpace=wrap;html=1;" parent="1" vertex="1">
          <mxGeometry x="603" y="810" width="77" height="60" as="geometry" />
        </mxCell>
        <mxCell id="Yk1SCRRMEy108CKN9fgq-57" style="edgeStyle=orthogonalEdgeStyle;rounded=0;orthogonalLoop=1;jettySize=auto;html=1;exitX=0.5;exitY=0;exitDx=0;exitDy=0;entryX=0.75;entryY=1;entryDx=0;entryDy=0;endArrow=none;endFill=0;" parent="1" source="Yk1SCRRMEy108CKN9fgq-54" target="Yk1SCRRMEy108CKN9fgq-28" edge="1">
          <mxGeometry relative="1" as="geometry" />
        </mxCell>
        <mxCell id="Yk1SCRRMEy108CKN9fgq-54" value="Evalua" style="rhombus;whiteSpace=wrap;html=1;" parent="1" vertex="1">
          <mxGeometry x="612" y="545" width="60" height="50" as="geometry" />
        </mxCell>
        <mxCell id="Yk1SCRRMEy108CKN9fgq-59" style="edgeStyle=orthogonalEdgeStyle;rounded=0;orthogonalLoop=1;jettySize=auto;html=1;exitX=0.5;exitY=0;exitDx=0;exitDy=0;entryX=0.5;entryY=1;entryDx=0;entryDy=0;endArrow=none;endFill=0;" parent="1" source="Yk1SCRRMEy108CKN9fgq-58" target="Yk1SCRRMEy108CKN9fgq-34" edge="1">
          <mxGeometry relative="1" as="geometry" />
        </mxCell>
        <mxCell id="Yk1SCRRMEy108CKN9fgq-60" style="edgeStyle=orthogonalEdgeStyle;rounded=0;orthogonalLoop=1;jettySize=auto;html=1;exitX=1;exitY=0.5;exitDx=0;exitDy=0;entryX=0;entryY=0.5;entryDx=0;entryDy=0;endArrow=none;endFill=0;" parent="1" source="Yk1SCRRMEy108CKN9fgq-58" target="Yk1SCRRMEy108CKN9fgq-33" edge="1">
          <mxGeometry relative="1" as="geometry" />
        </mxCell>
        <mxCell id="Yk1SCRRMEy108CKN9fgq-58" value="Registra" style="rhombus;whiteSpace=wrap;html=1;" parent="1" vertex="1">
          <mxGeometry x="390" y="682" width="60" height="50" as="geometry" />
        </mxCell>
        <mxCell id="Yk1SCRRMEy108CKN9fgq-63" style="edgeStyle=orthogonalEdgeStyle;rounded=0;orthogonalLoop=1;jettySize=auto;html=1;exitX=0;exitY=0.5;exitDx=0;exitDy=0;entryX=1;entryY=0.5;entryDx=0;entryDy=0;endArrow=none;endFill=0;" parent="1" source="Yk1SCRRMEy108CKN9fgq-61" target="Yk1SCRRMEy108CKN9fgq-30" edge="1">
          <mxGeometry relative="1" as="geometry" />
        </mxCell>
        <mxCell id="Yk1SCRRMEy108CKN9fgq-61" value="Crea" style="rhombus;whiteSpace=wrap;html=1;" parent="1" vertex="1">
          <mxGeometry x="310" y="500" width="60" height="50" as="geometry" />
        </mxCell>
        <mxCell id="Yk1SCRRMEy108CKN9fgq-66" style="edgeStyle=orthogonalEdgeStyle;rounded=0;orthogonalLoop=1;jettySize=auto;html=1;exitX=0.5;exitY=0;exitDx=0;exitDy=0;entryX=0;entryY=0.5;entryDx=0;entryDy=0;endArrow=none;endFill=0;" parent="1" source="Yk1SCRRMEy108CKN9fgq-64" target="Yk1SCRRMEy108CKN9fgq-27" edge="1">
          <mxGeometry relative="1" as="geometry" />
        </mxCell>
        <mxCell id="Yk1SCRRMEy108CKN9fgq-67" style="edgeStyle=orthogonalEdgeStyle;rounded=0;orthogonalLoop=1;jettySize=auto;html=1;exitX=0.5;exitY=1;exitDx=0;exitDy=0;entryX=0.5;entryY=0;entryDx=0;entryDy=0;endArrow=none;endFill=0;" parent="1" source="Yk1SCRRMEy108CKN9fgq-64" target="Yk1SCRRMEy108CKN9fgq-35" edge="1">
          <mxGeometry relative="1" as="geometry" />
        </mxCell>
        <mxCell id="Yk1SCRRMEy108CKN9fgq-64" value="Crea" style="rhombus;whiteSpace=wrap;html=1;" parent="1" vertex="1">
          <mxGeometry x="-285" y="460" width="60" height="50" as="geometry" />
        </mxCell>
        <mxCell id="Yk1SCRRMEy108CKN9fgq-72" style="rounded=0;orthogonalLoop=1;jettySize=auto;html=1;exitX=1;exitY=1;exitDx=0;exitDy=0;entryX=0.25;entryY=0;entryDx=0;entryDy=0;endArrow=none;endFill=0;" parent="1" source="Yk1SCRRMEy108CKN9fgq-68" target="Yk1SCRRMEy108CKN9fgq-30" edge="1">
          <mxGeometry relative="1" as="geometry" />
        </mxCell>
        <mxCell id="Yk1SCRRMEy108CKN9fgq-68" value="&lt;u&gt;Id_criterio&lt;/u&gt;" style="ellipse;whiteSpace=wrap;html=1;" parent="1" vertex="1">
          <mxGeometry x="-70" y="510" width="70" height="30" as="geometry" />
        </mxCell>
        <mxCell id="Yk1SCRRMEy108CKN9fgq-73" style="rounded=0;orthogonalLoop=1;jettySize=auto;html=1;exitX=1;exitY=0.5;exitDx=0;exitDy=0;entryX=0;entryY=0.5;entryDx=0;entryDy=0;endArrow=none;endFill=0;" parent="1" source="Yk1SCRRMEy108CKN9fgq-69" target="Yk1SCRRMEy108CKN9fgq-30" edge="1">
          <mxGeometry relative="1" as="geometry" />
        </mxCell>
        <mxCell id="Yk1SCRRMEy108CKN9fgq-69" value="Nombre" style="ellipse;whiteSpace=wrap;html=1;" parent="1" vertex="1">
          <mxGeometry x="-110" y="545" width="70" height="25" as="geometry" />
        </mxCell>
        <mxCell id="Yk1SCRRMEy108CKN9fgq-74" style="rounded=0;orthogonalLoop=1;jettySize=auto;html=1;exitX=1;exitY=0.5;exitDx=0;exitDy=0;entryX=0.006;entryY=0.64;entryDx=0;entryDy=0;entryPerimeter=0;endArrow=none;endFill=0;" parent="1" source="Yk1SCRRMEy108CKN9fgq-70" target="Yk1SCRRMEy108CKN9fgq-30" edge="1">
          <mxGeometry relative="1" as="geometry" />
        </mxCell>
        <mxCell id="Yk1SCRRMEy108CKN9fgq-70" value="DescripciÃ³n" style="ellipse;whiteSpace=wrap;html=1;" parent="1" vertex="1">
          <mxGeometry x="-130" y="585" width="80" height="35" as="geometry" />
        </mxCell>
        <mxCell id="Yk1SCRRMEy108CKN9fgq-75" style="rounded=0;orthogonalLoop=1;jettySize=auto;html=1;exitX=1;exitY=0;exitDx=0;exitDy=0;entryX=0;entryY=0.75;entryDx=0;entryDy=0;endArrow=none;endFill=0;" parent="1" source="Yk1SCRRMEy108CKN9fgq-71" target="Yk1SCRRMEy108CKN9fgq-30" edge="1">
          <mxGeometry relative="1" as="geometry" />
        </mxCell>
        <mxCell id="Yk1SCRRMEy108CKN9fgq-71" value="Peso" style="ellipse;whiteSpace=wrap;html=1;" parent="1" vertex="1">
          <mxGeometry x="-100" y="630" width="70" height="20" as="geometry" />
        </mxCell>
        <mxCell id="Yk1SCRRMEy108CKN9fgq-81" style="rounded=0;orthogonalLoop=1;jettySize=auto;html=1;exitX=1;exitY=1;exitDx=0;exitDy=0;endArrow=none;endFill=0;entryX=0.18;entryY=-0.016;entryDx=0;entryDy=0;entryPerimeter=0;" parent="1" source="Yk1SCRRMEy108CKN9fgq-77" target="Yk1SCRRMEy108CKN9fgq-31" edge="1">
          <mxGeometry relative="1" as="geometry">
            <mxPoint y="730" as="targetPoint" />
          </mxGeometry>
        </mxCell>
        <mxCell id="Yk1SCRRMEy108CKN9fgq-77" value="&lt;u&gt;Id_subcriterio&lt;/u&gt;" style="ellipse;whiteSpace=wrap;html=1;" parent="1" vertex="1">
          <mxGeometry x="-100" y="682" width="80" height="30" as="geometry" />
        </mxCell>
        <mxCell id="Yk1SCRRMEy108CKN9fgq-82" style="rounded=0;orthogonalLoop=1;jettySize=auto;html=1;exitX=1;exitY=0.5;exitDx=0;exitDy=0;entryX=0;entryY=0.25;entryDx=0;entryDy=0;endArrow=none;endFill=0;" parent="1" source="Yk1SCRRMEy108CKN9fgq-78" target="Yk1SCRRMEy108CKN9fgq-31" edge="1">
          <mxGeometry relative="1" as="geometry" />
        </mxCell>
        <mxCell id="Yk1SCRRMEy108CKN9fgq-78" value="Nombre" style="ellipse;whiteSpace=wrap;html=1;" parent="1" vertex="1">
          <mxGeometry x="-140" y="712" width="70" height="25" as="geometry" />
        </mxCell>
        <mxCell id="Yk1SCRRMEy108CKN9fgq-83" style="rounded=0;orthogonalLoop=1;jettySize=auto;html=1;exitX=1;exitY=0.5;exitDx=0;exitDy=0;entryX=0;entryY=0.5;entryDx=0;entryDy=0;endArrow=none;endFill=0;" parent="1" source="Yk1SCRRMEy108CKN9fgq-79" target="Yk1SCRRMEy108CKN9fgq-31" edge="1">
          <mxGeometry relative="1" as="geometry" />
        </mxCell>
        <mxCell id="Yk1SCRRMEy108CKN9fgq-79" value="DescripciÃ³n" style="ellipse;whiteSpace=wrap;html=1;" parent="1" vertex="1">
          <mxGeometry x="-140" y="744.5" width="70" height="25" as="geometry" />
        </mxCell>
        <mxCell id="Yk1SCRRMEy108CKN9fgq-84" style="rounded=0;orthogonalLoop=1;jettySize=auto;html=1;exitX=1;exitY=0.5;exitDx=0;exitDy=0;entryX=-0.002;entryY=0.64;entryDx=0;entryDy=0;entryPerimeter=0;endArrow=none;endFill=0;" parent="1" source="Yk1SCRRMEy108CKN9fgq-80" target="Yk1SCRRMEy108CKN9fgq-31" edge="1">
          <mxGeometry relative="1" as="geometry" />
        </mxCell>
        <mxCell id="Yk1SCRRMEy108CKN9fgq-80" value="Peso" style="ellipse;whiteSpace=wrap;html=1;" parent="1" vertex="1">
          <mxGeometry x="-140" y="780" width="70" height="25" as="geometry" />
        </mxCell>
        <mxCell id="Yk1SCRRMEy108CKN9fgq-86" style="rounded=0;orthogonalLoop=1;jettySize=auto;html=1;exitX=0;exitY=1;exitDx=0;exitDy=0;entryX=1;entryY=0;entryDx=0;entryDy=0;endArrow=none;endFill=0;" parent="1" source="Yk1SCRRMEy108CKN9fgq-85" target="Yk1SCRRMEy108CKN9fgq-43" edge="1">
          <mxGeometry relative="1" as="geometry" />
        </mxCell>
        <mxCell id="Yk1SCRRMEy108CKN9fgq-85" value="Fecha_reg" style="ellipse;whiteSpace=wrap;html=1;" parent="1" vertex="1">
          <mxGeometry x="100" y="800" width="80" height="30" as="geometry" />
        </mxCell>
        <mxCell id="Yk1SCRRMEy108CKN9fgq-88" style="rounded=0;orthogonalLoop=1;jettySize=auto;html=1;exitX=1;exitY=1;exitDx=0;exitDy=0;entryX=0.25;entryY=0;entryDx=0;entryDy=0;endArrow=none;endFill=0;" parent="1" source="Yk1SCRRMEy108CKN9fgq-87" target="Yk1SCRRMEy108CKN9fgq-32" edge="1">
          <mxGeometry relative="1" as="geometry" />
        </mxCell>
        <mxCell id="Yk1SCRRMEy108CKN9fgq-87" value="Id_indicador" style="ellipse;whiteSpace=wrap;html=1;" parent="1" vertex="1">
          <mxGeometry x="-100" y="860" width="80" height="25" as="geometry" />
        </mxCell>
        <mxCell id="Yk1SCRRMEy108CKN9fgq-91" style="rounded=0;orthogonalLoop=1;jettySize=auto;html=1;exitX=1;exitY=0.5;exitDx=0;exitDy=0;entryX=0.002;entryY=0.304;entryDx=0;entryDy=0;endArrow=none;endFill=0;entryPerimeter=0;" parent="1" source="Yk1SCRRMEy108CKN9fgq-89" target="Yk1SCRRMEy108CKN9fgq-32" edge="1">
          <mxGeometry relative="1" as="geometry" />
        </mxCell>
        <mxCell id="Yk1SCRRMEy108CKN9fgq-89" value="DescripciÃ³n" style="ellipse;whiteSpace=wrap;html=1;" parent="1" vertex="1">
          <mxGeometry x="-100" y="910" width="70" height="25" as="geometry" />
        </mxCell>
        <mxCell id="Yk1SCRRMEy108CKN9fgq-92" style="rounded=0;orthogonalLoop=1;jettySize=auto;html=1;exitX=1;exitY=0.5;exitDx=0;exitDy=0;entryX=0;entryY=0.75;entryDx=0;entryDy=0;endArrow=none;endFill=0;" parent="1" source="Yk1SCRRMEy108CKN9fgq-90" target="Yk1SCRRMEy108CKN9fgq-32" edge="1">
          <mxGeometry relative="1" as="geometry" />
        </mxCell>
        <mxCell id="Yk1SCRRMEy108CKN9fgq-90" value="Escala" style="ellipse;whiteSpace=wrap;html=1;" parent="1" vertex="1">
          <mxGeometry x="-100" y="950" width="70" height="25" as="geometry" />
        </mxCell>
        <UserObject label="(1,n)" placeholders="1" name="Variable" id="Yk1SCRRMEy108CKN9fgq-93">
          <mxCell style="text;html=1;strokeColor=none;fillColor=none;align=center;verticalAlign=middle;whiteSpace=wrap;overflow=hidden;" parent="1" vertex="1">
            <mxGeometry x="37" y="887" width="40" height="25" as="geometry" />
          </mxCell>
        </UserObject>
        <UserObject label="1:n" placeholders="1" name="Variable" id="Yk1SCRRMEy108CKN9fgq-94">
          <mxCell style="text;html=1;strokeColor=none;fillColor=none;align=center;verticalAlign=middle;whiteSpace=wrap;overflow=hidden;" parent="1" vertex="1">
            <mxGeometry x="62" y="650" width="40" height="25" as="geometry" />
          </mxCell>
        </UserObject>
        <UserObject label="1:n" placeholders="1" name="Variable" id="Yk1SCRRMEy108CKN9fgq-95">
          <mxCell style="text;html=1;strokeColor=none;fillColor=none;align=center;verticalAlign=middle;whiteSpace=wrap;overflow=hidden;" parent="1" vertex="1">
            <mxGeometry x="60" y="832.5" width="40" height="25" as="geometry" />
          </mxCell>
        </UserObject>
        <UserObject label="(1,1)" placeholders="1" name="Variable" id="Yk1SCRRMEy108CKN9fgq-96">
          <mxCell style="text;html=1;strokeColor=none;fillColor=none;align=center;verticalAlign=middle;whiteSpace=wrap;overflow=hidden;" parent="1" vertex="1">
            <mxGeometry x="36" y="779" width="40" height="25" as="geometry" />
          </mxCell>
        </UserObject>
        <UserObject label="(1,1)" placeholders="1" name="Variable" id="Yk1SCRRMEy108CKN9fgq-97">
          <mxCell style="text;html=1;strokeColor=none;fillColor=none;align=center;verticalAlign=middle;whiteSpace=wrap;overflow=hidden;" parent="1" vertex="1">
            <mxGeometry x="38" y="608" width="40" height="25" as="geometry" />
          </mxCell>
        </UserObject>
        <UserObject label="(1,n)" placeholders="1" name="Variable" id="Yk1SCRRMEy108CKN9fgq-98">
          <mxCell style="text;html=1;strokeColor=none;fillColor=none;align=center;verticalAlign=middle;whiteSpace=wrap;overflow=hidden;" parent="1" vertex="1">
            <mxGeometry x="36" y="711" width="40" height="25" as="geometry" />
          </mxCell>
        </UserObject>
        <UserObject label="(1,1)" placeholders="1" name="Variable" id="Yk1SCRRMEy108CKN9fgq-99">
          <mxCell style="text;html=1;strokeColor=none;fillColor=none;align=center;verticalAlign=middle;whiteSpace=wrap;overflow=hidden;" parent="1" vertex="1">
            <mxGeometry x="125" y="435" width="40" height="25" as="geometry" />
          </mxCell>
        </UserObject>
        <UserObject label="1:n" placeholders="1" name="Variable" id="Yk1SCRRMEy108CKN9fgq-101">
          <mxCell style="text;html=1;strokeColor=none;fillColor=none;align=center;verticalAlign=middle;whiteSpace=wrap;overflow=hidden;" parent="1" vertex="1">
            <mxGeometry x="66" y="480.5" width="40" height="25" as="geometry" />
          </mxCell>
        </UserObject>
        <UserObject label="(1,n)" placeholders="1" name="Variable" id="Yk1SCRRMEy108CKN9fgq-102">
          <mxCell style="text;html=1;strokeColor=none;fillColor=none;align=center;verticalAlign=middle;whiteSpace=wrap;overflow=hidden;" parent="1" vertex="1">
            <mxGeometry x="38" y="539" width="40" height="25" as="geometry" />
          </mxCell>
        </UserObject>
        <UserObject label="(1,n)" placeholders="1" name="Variable" id="Yk1SCRRMEy108CKN9fgq-103">
          <mxCell style="text;html=1;strokeColor=none;fillColor=none;align=center;verticalAlign=middle;whiteSpace=wrap;overflow=hidden;" parent="1" vertex="1">
            <mxGeometry x="90" y="563" width="40" height="25" as="geometry" />
          </mxCell>
        </UserObject>
        <UserObject label="(1,n)" placeholders="1" name="Variable" id="Yk1SCRRMEy108CKN9fgq-104">
          <mxCell style="text;html=1;strokeColor=none;fillColor=none;align=center;verticalAlign=middle;whiteSpace=wrap;overflow=hidden;" parent="1" vertex="1">
            <mxGeometry x="-260" y="529" width="40" height="25" as="geometry" />
          </mxCell>
        </UserObject>
        <UserObject label="1:n" placeholders="1" name="Variable" id="Yk1SCRRMEy108CKN9fgq-105">
          <mxCell style="text;html=1;strokeColor=none;fillColor=none;align=center;verticalAlign=middle;whiteSpace=wrap;overflow=hidden;" parent="1" vertex="1">
            <mxGeometry x="-235" y="472.5" width="40" height="25" as="geometry" />
          </mxCell>
        </UserObject>
        <mxCell id="Yk1SCRRMEy108CKN9fgq-107" style="rounded=0;orthogonalLoop=1;jettySize=auto;html=1;exitX=0.5;exitY=1;exitDx=0;exitDy=0;entryX=1;entryY=0;entryDx=0;entryDy=0;endArrow=none;endFill=0;" parent="1" source="Yk1SCRRMEy108CKN9fgq-106" target="Yk1SCRRMEy108CKN9fgq-48" edge="1">
          <mxGeometry relative="1" as="geometry" />
        </mxCell>
        <mxCell id="Yk1SCRRMEy108CKN9fgq-106" value="ObservaciÃ³n" style="ellipse;whiteSpace=wrap;html=1;" parent="1" vertex="1">
          <mxGeometry x="250" y="880" width="80" height="30" as="geometry" />
        </mxCell>
        <mxCell id="Yk1SCRRMEy108CKN9fgq-112" style="rounded=0;orthogonalLoop=1;jettySize=auto;html=1;exitX=0.5;exitY=1;exitDx=0;exitDy=0;entryX=0.5;entryY=0;entryDx=0;entryDy=0;endArrow=none;endFill=0;" parent="1" source="Yk1SCRRMEy108CKN9fgq-108" target="Yk1SCRRMEy108CKN9fgq-29" edge="1">
          <mxGeometry relative="1" as="geometry" />
        </mxCell>
        <mxCell id="Yk1SCRRMEy108CKN9fgq-108" value="Id_evidencia" style="ellipse;whiteSpace=wrap;html=1;" parent="1" vertex="1">
          <mxGeometry x="405" y="860" width="80" height="30" as="geometry" />
        </mxCell>
        <mxCell id="Yk1SCRRMEy108CKN9fgq-113" style="rounded=0;orthogonalLoop=1;jettySize=auto;html=1;exitX=0.5;exitY=0;exitDx=0;exitDy=0;entryX=0.5;entryY=1;entryDx=0;entryDy=0;endArrow=none;endFill=0;" parent="1" source="Yk1SCRRMEy108CKN9fgq-110" target="Yk1SCRRMEy108CKN9fgq-29" edge="1">
          <mxGeometry relative="1" as="geometry" />
        </mxCell>
        <mxCell id="Yk1SCRRMEy108CKN9fgq-110" value="Nombre" style="ellipse;whiteSpace=wrap;html=1;" parent="1" vertex="1">
          <mxGeometry x="360" y="980" width="80" height="30" as="geometry" />
        </mxCell>
        <mxCell id="Yk1SCRRMEy108CKN9fgq-114" style="rounded=0;orthogonalLoop=1;jettySize=auto;html=1;exitX=0.5;exitY=0;exitDx=0;exitDy=0;endArrow=none;endFill=0;" parent="1" source="Yk1SCRRMEy108CKN9fgq-111" edge="1">
          <mxGeometry relative="1" as="geometry">
            <mxPoint x="460" y="960" as="targetPoint" />
          </mxGeometry>
        </mxCell>
        <mxCell id="Yk1SCRRMEy108CKN9fgq-111" value="Enlace" style="ellipse;whiteSpace=wrap;html=1;" parent="1" vertex="1">
          <mxGeometry x="455" y="980" width="80" height="30" as="geometry" />
        </mxCell>
        <UserObject label="(1,1)" placeholders="1" name="Variable" id="Yk1SCRRMEy108CKN9fgq-115">
          <mxCell style="text;html=1;strokeColor=none;fillColor=none;align=center;verticalAlign=middle;whiteSpace=wrap;overflow=hidden;" parent="1" vertex="1">
            <mxGeometry x="90" y="913" width="40" height="25" as="geometry" />
          </mxCell>
        </UserObject>
        <UserObject label="(0,n)" placeholders="1" name="Variable" id="Yk1SCRRMEy108CKN9fgq-116">
          <mxCell style="text;html=1;strokeColor=none;fillColor=none;align=center;verticalAlign=middle;whiteSpace=wrap;overflow=hidden;" parent="1" vertex="1">
            <mxGeometry x="353" y="913" width="40" height="25" as="geometry" />
          </mxCell>
        </UserObject>
        <UserObject label="1:n" placeholders="1" name="Variable" id="Yk1SCRRMEy108CKN9fgq-117">
          <mxCell style="text;html=1;strokeColor=none;fillColor=none;align=center;verticalAlign=middle;whiteSpace=wrap;overflow=hidden;" parent="1" vertex="1">
            <mxGeometry x="220" y="955" width="40" height="25" as="geometry" />
          </mxCell>
        </UserObject>
        <UserObject label="(1,1)" placeholders="1" name="Variable" id="Yk1SCRRMEy108CKN9fgq-118">
          <mxCell style="text;html=1;strokeColor=none;fillColor=none;align=center;verticalAlign=middle;whiteSpace=wrap;overflow=hidden;" parent="1" vertex="1">
            <mxGeometry x="640" y="727" width="40" height="25" as="geometry" />
          </mxCell>
        </UserObject>
        <UserObject label="(0,n)" placeholders="1" name="Variable" id="Yk1SCRRMEy108CKN9fgq-120">
          <mxCell style="text;html=1;strokeColor=none;fillColor=none;align=center;verticalAlign=middle;whiteSpace=wrap;overflow=hidden;" parent="1" vertex="1">
            <mxGeometry x="495" y="913" width="40" height="25" as="geometry" />
          </mxCell>
        </UserObject>
        <UserObject label="1:n" placeholders="1" name="Variable" id="Yk1SCRRMEy108CKN9fgq-121">
          <mxCell style="text;html=1;strokeColor=none;fillColor=none;align=center;verticalAlign=middle;whiteSpace=wrap;overflow=hidden;" parent="1" vertex="1">
            <mxGeometry x="670" y="827.5" width="40" height="25" as="geometry" />
          </mxCell>
        </UserObject>
        <UserObject label="(1,1)" placeholders="1" name="Variable" id="Yk1SCRRMEy108CKN9fgq-123">
          <mxCell style="text;html=1;strokeColor=none;fillColor=none;align=center;verticalAlign=middle;whiteSpace=wrap;overflow=hidden;" parent="1" vertex="1">
            <mxGeometry x="415" y="615" width="40" height="25" as="geometry" />
          </mxCell>
        </UserObject>
        <UserObject label="(1,n)" placeholders="1" name="Variable" id="Yk1SCRRMEy108CKN9fgq-124">
          <mxCell style="text;html=1;strokeColor=none;fillColor=none;align=center;verticalAlign=middle;whiteSpace=wrap;overflow=hidden;" parent="1" vertex="1">
            <mxGeometry x="553" y="684" width="40" height="25" as="geometry" />
          </mxCell>
        </UserObject>
        <UserObject label="1:n" placeholders="1" name="Variable" id="Yk1SCRRMEy108CKN9fgq-126">
          <mxCell style="text;html=1;strokeColor=none;fillColor=none;align=center;verticalAlign=middle;whiteSpace=wrap;overflow=hidden;" parent="1" vertex="1">
            <mxGeometry x="320" y="480.5" width="40" height="25" as="geometry" />
          </mxCell>
        </UserObject>
        <UserObject label="(1,1)" placeholders="1" name="Variable" id="Yk1SCRRMEy108CKN9fgq-127">
          <mxCell style="text;html=1;strokeColor=none;fillColor=none;align=center;verticalAlign=middle;whiteSpace=wrap;overflow=hidden;" parent="1" vertex="1">
            <mxGeometry x="580" y="462" width="40" height="25" as="geometry" />
          </mxCell>
        </UserObject>
        <UserObject label="(1,1)" placeholders="1" name="Variable" id="Yk1SCRRMEy108CKN9fgq-128">
          <mxCell style="text;html=1;strokeColor=none;fillColor=none;align=center;verticalAlign=middle;whiteSpace=wrap;overflow=hidden;" parent="1" vertex="1">
            <mxGeometry x="637" y="462" width="40" height="25" as="geometry" />
          </mxCell>
        </UserObject>
        <UserObject label="1:n" placeholders="1" name="Variable" id="Yk1SCRRMEy108CKN9fgq-129">
          <mxCell style="text;html=1;strokeColor=none;fillColor=none;align=center;verticalAlign=middle;whiteSpace=wrap;overflow=hidden;" parent="1" vertex="1">
            <mxGeometry x="358" y="694.5" width="40" height="25" as="geometry" />
          </mxCell>
        </UserObject>
        <UserObject label="(1,n)" placeholders="1" name="Variable" id="Yk1SCRRMEy108CKN9fgq-130">
          <mxCell style="text;html=1;strokeColor=none;fillColor=none;align=center;verticalAlign=middle;whiteSpace=wrap;overflow=hidden;" parent="1" vertex="1">
            <mxGeometry x="607" y="659" width="40" height="25" as="geometry" />
          </mxCell>
        </UserObject>
        <UserObject label="1:n" placeholders="1" name="Variable" id="Yk1SCRRMEy108CKN9fgq-131">
          <mxCell style="text;html=1;strokeColor=none;fillColor=none;align=center;verticalAlign=middle;whiteSpace=wrap;overflow=hidden;" parent="1" vertex="1">
            <mxGeometry x="580" y="569.5" width="40" height="25" as="geometry" />
          </mxCell>
        </UserObject>
        <mxCell id="Yk1SCRRMEy108CKN9fgq-138" style="rounded=0;orthogonalLoop=1;jettySize=auto;html=1;exitX=0;exitY=1;exitDx=0;exitDy=0;endArrow=none;endFill=0;entryX=0.815;entryY=-0.02;entryDx=0;entryDy=0;entryPerimeter=0;" parent="1" source="Yk1SCRRMEy108CKN9fgq-132" target="Yk1SCRRMEy108CKN9fgq-33" edge="1">
          <mxGeometry relative="1" as="geometry">
            <mxPoint x="680" y="680" as="targetPoint" />
          </mxGeometry>
        </mxCell>
        <mxCell id="Yk1SCRRMEy108CKN9fgq-132" value="&lt;u&gt;Id_actividad&lt;/u&gt;" style="ellipse;whiteSpace=wrap;html=1;" parent="1" vertex="1">
          <mxGeometry x="720" y="567.5" width="96" height="35" as="geometry" />
        </mxCell>
        <mxCell id="Yk1SCRRMEy108CKN9fgq-140" style="rounded=0;orthogonalLoop=1;jettySize=auto;html=1;exitX=0;exitY=1;exitDx=0;exitDy=0;entryX=1.003;entryY=0.307;entryDx=0;entryDy=0;entryPerimeter=0;endArrow=none;endFill=0;" parent="1" source="Yk1SCRRMEy108CKN9fgq-133" target="Yk1SCRRMEy108CKN9fgq-33" edge="1">
          <mxGeometry relative="1" as="geometry" />
        </mxCell>
        <mxCell id="Yk1SCRRMEy108CKN9fgq-133" value="DescripciÃ³n" style="ellipse;whiteSpace=wrap;html=1;" parent="1" vertex="1">
          <mxGeometry x="729" y="647.5" width="98" height="30" as="geometry" />
        </mxCell>
        <mxCell id="Yk1SCRRMEy108CKN9fgq-139" style="rounded=0;orthogonalLoop=1;jettySize=auto;html=1;exitX=0;exitY=0.5;exitDx=0;exitDy=0;endArrow=none;endFill=0;entryX=0.97;entryY=-0.013;entryDx=0;entryDy=0;entryPerimeter=0;" parent="1" source="Yk1SCRRMEy108CKN9fgq-134" target="Yk1SCRRMEy108CKN9fgq-33" edge="1">
          <mxGeometry relative="1" as="geometry">
            <mxPoint x="690" y="680" as="targetPoint" />
          </mxGeometry>
        </mxCell>
        <mxCell id="Yk1SCRRMEy108CKN9fgq-134" value="Nombre" style="ellipse;whiteSpace=wrap;html=1;" parent="1" vertex="1">
          <mxGeometry x="730" y="610" width="98" height="30" as="geometry" />
        </mxCell>
        <mxCell id="Yk1SCRRMEy108CKN9fgq-141" style="rounded=0;orthogonalLoop=1;jettySize=auto;html=1;exitX=0;exitY=0.5;exitDx=0;exitDy=0;entryX=1;entryY=0.5;entryDx=0;entryDy=0;endArrow=none;endFill=0;" parent="1" source="Yk1SCRRMEy108CKN9fgq-135" target="Yk1SCRRMEy108CKN9fgq-33" edge="1">
          <mxGeometry relative="1" as="geometry" />
        </mxCell>
        <mxCell id="Yk1SCRRMEy108CKN9fgq-135" value="Fecha_inicio" style="ellipse;whiteSpace=wrap;html=1;" parent="1" vertex="1">
          <mxGeometry x="730" y="690" width="98" height="30" as="geometry" />
        </mxCell>
        <mxCell id="Yk1SCRRMEy108CKN9fgq-143" style="rounded=0;orthogonalLoop=1;jettySize=auto;html=1;exitX=0;exitY=0;exitDx=0;exitDy=0;entryX=0.939;entryY=1.033;entryDx=0;entryDy=0;entryPerimeter=0;endArrow=none;endFill=0;" parent="1" source="Yk1SCRRMEy108CKN9fgq-136" target="Yk1SCRRMEy108CKN9fgq-33" edge="1">
          <mxGeometry relative="1" as="geometry" />
        </mxCell>
        <mxCell id="Yk1SCRRMEy108CKN9fgq-136" value="Estado" style="ellipse;whiteSpace=wrap;html=1;" parent="1" vertex="1">
          <mxGeometry x="720" y="769.5" width="98" height="30" as="geometry" />
        </mxCell>
        <mxCell id="Yk1SCRRMEy108CKN9fgq-142" style="rounded=0;orthogonalLoop=1;jettySize=auto;html=1;exitX=0.041;exitY=0.344;exitDx=0;exitDy=0;entryX=1;entryY=0.813;entryDx=0;entryDy=0;entryPerimeter=0;endArrow=none;endFill=0;exitPerimeter=0;" parent="1" source="Yk1SCRRMEy108CKN9fgq-137" target="Yk1SCRRMEy108CKN9fgq-33" edge="1">
          <mxGeometry relative="1" as="geometry" />
        </mxCell>
        <mxCell id="Yk1SCRRMEy108CKN9fgq-137" value="Fecha_fin" style="ellipse;whiteSpace=wrap;html=1;" parent="1" vertex="1">
          <mxGeometry x="730" y="727" width="98" height="30" as="geometry" />
        </mxCell>
        <mxCell id="Yk1SCRRMEy108CKN9fgq-148" value="Fecha_reg" style="ellipse;whiteSpace=wrap;html=1;" parent="1" vertex="1">
          <mxGeometry x="80" y="617.5" width="80" height="30" as="geometry" />
        </mxCell>
        <mxCell id="Yk1SCRRMEy108CKN9fgq-151" style="rounded=0;orthogonalLoop=1;jettySize=auto;html=1;exitX=0;exitY=1;exitDx=0;exitDy=0;entryX=1;entryY=0;entryDx=0;entryDy=0;endArrow=none;endFill=0;" parent="1" source="Yk1SCRRMEy108CKN9fgq-150" target="Yk1SCRRMEy108CKN9fgq-54" edge="1">
          <mxGeometry relative="1" as="geometry" />
        </mxCell>
        <mxCell id="Yk1SCRRMEy108CKN9fgq-150" value="ObservaciÃ³n" style="ellipse;whiteSpace=wrap;html=1;" parent="1" vertex="1">
          <mxGeometry x="680" y="515" width="96" height="35" as="geometry" />
        </mxCell>
        <mxCell id="9bYaK1Sk4-K0mLXy_x04-1" value="Rol" style="rounded=0;whiteSpace=wrap;html=1;" vertex="1" parent="1">
          <mxGeometry x="800" y="225" width="120" height="60" as="geometry" />
        </mxCell>
        <mxCell id="9bYaK1Sk4-K0mLXy_x04-4" style="edgeStyle=orthogonalEdgeStyle;rounded=0;orthogonalLoop=1;jettySize=auto;html=1;exitX=1;exitY=0.5;exitDx=0;exitDy=0;entryX=0;entryY=0.5;entryDx=0;entryDy=0;endArrow=none;endFill=0;" edge="1" parent="1" source="9bYaK1Sk4-K0mLXy_x04-2" target="9bYaK1Sk4-K0mLXy_x04-1">
          <mxGeometry relative="1" as="geometry" />
        </mxCell>
        <mxCell id="9bYaK1Sk4-K0mLXy_x04-2" value="Tiene" style="rhombus;whiteSpace=wrap;html=1;" vertex="1" parent="1">
          <mxGeometry x="597" y="216" width="80" height="80" as="geometry" />
        </mxCell>
        <mxCell id="9bYaK1Sk4-K0mLXy_x04-8" style="rounded=0;orthogonalLoop=1;jettySize=auto;html=1;exitX=0.5;exitY=1;exitDx=0;exitDy=0;entryX=0.5;entryY=0;entryDx=0;entryDy=0;endArrow=none;endFill=0;" edge="1" parent="1" source="9bYaK1Sk4-K0mLXy_x04-5" target="9bYaK1Sk4-K0mLXy_x04-1">
          <mxGeometry relative="1" as="geometry" />
        </mxCell>
        <mxCell id="9bYaK1Sk4-K0mLXy_x04-5" value="Id_rol" style="ellipse;whiteSpace=wrap;html=1;" vertex="1" parent="1">
          <mxGeometry x="800" y="125" width="120" height="50" as="geometry" />
        </mxCell>
        <mxCell id="9bYaK1Sk4-K0mLXy_x04-7" style="rounded=0;orthogonalLoop=1;jettySize=auto;html=1;exitX=0;exitY=0.5;exitDx=0;exitDy=0;entryX=1;entryY=0.5;entryDx=0;entryDy=0;endArrow=none;endFill=0;" edge="1" parent="1" source="9bYaK1Sk4-K0mLXy_x04-6" target="9bYaK1Sk4-K0mLXy_x04-1">
          <mxGeometry relative="1" as="geometry" />
        </mxCell>
        <mxCell id="9bYaK1Sk4-K0mLXy_x04-6" value="Nombre_rol" style="ellipse;whiteSpace=wrap;html=1;" vertex="1" parent="1">
          <mxGeometry x="990" y="224" width="120" height="60" as="geometry" />
        </mxCell>
        <UserObject label="(1,1)" placeholders="1" name="Variable" id="9bYaK1Sk4-K0mLXy_x04-9">
          <mxCell style="text;html=1;strokeColor=none;fillColor=none;align=center;verticalAlign=middle;whiteSpace=wrap;overflow=hidden;" vertex="1" parent="1">
            <mxGeometry x="763" y="231" width="40" height="25" as="geometry" />
          </mxCell>
        </UserObject>
        <UserObject label="(1,n)" placeholders="1" name="Variable" id="9bYaK1Sk4-K0mLXy_x04-10">
          <mxCell style="text;html=1;strokeColor=none;fillColor=none;align=center;verticalAlign=middle;whiteSpace=wrap;overflow=hidden;" vertex="1" parent="1">
            <mxGeometry x="477" y="235" width="40" height="25" as="geometry" />
          </mxCell>
        </UserObject>
        <UserObject label="1:n" placeholders="1" name="Variable" id="9bYaK1Sk4-K0mLXy_x04-11">
          <mxCell style="text;html=1;strokeColor=none;fillColor=none;align=center;verticalAlign=middle;whiteSpace=wrap;overflow=hidden;" vertex="1" parent="1">
            <mxGeometry x="640" y="200" width="40" height="25" as="geometry" />
          </mxCell>
        </UserObject>
      </root>
    </mxGraphModel>
  </diagram>
</mxfile>
